<?xml version="1.0" encoding="UTF-8"?>
<svg id="Ebene_1" xmlns="http://www.w3.org/2000/svg" version="1.1" viewBox="0 0 1366 768">
  <!-- Generator: Adobe Illustrator 29.1.0, SVG Export Plug-In . SVG Version: 2.1.0 Build 142)  -->
  <defs>
    <style>
      .st0 {
        stroke-miterlimit: 10;
      }

      .st0, .st1 {
        fill: rgb(61, 207, 182);
        stroke: #000;
        stroke-width: .75px;
      }
    </style>
  </defs>
  <g>
    <path class="st0" d="M641.7,314.72v25.22h-6.28v-53.65h22.06c11.36,0,19.27,4.58,19.27,13.58,0,7.91-6,11.33-11.04,12.53,7.02,1.7,10.17,6.2,10.17,13.74v.82c0,5.04.06,9.78.94,12.99h-6.31c-.87-2.12-1.08-7.58-1.08-12.83v-.95c0-8.14-3.61-11.44-15.29-11.44h-12.45ZM641.7,310.37h12.95c9.41,0,15.58-2.22,15.58-10.32,0-6.03-4.85-9.4-13.61-9.4h-14.92v19.72Z"/>
    <path class="st0" d="M687.64,283.48h6.02v7.85h-6.02v-7.85ZM687.64,300.95h6.02v38.99h-6.02v-38.99Z"/>
    <path class="st0" d="M740.79,327.95c-2.13,7.55-8.02,12.75-18.65,12.75-13.03,0-19.78-7.22-19.78-20.38,0-10.81,6.41-20.15,20.15-20.15,11.66,0,17.36,6.41,18.19,13.25h-6.16c-1.1-4.78-4.51-8.99-12.15-8.99-9.5,0-13.74,6.69-13.74,15.89,0,10.33,4.84,16.14,13.69,16.14,7.09,0,10.38-3.52,12.29-8.51h6.15Z"/>
    <path class="st0" d="M754.79,283.48v23.42c2.37-3.96,7.29-6.73,14.65-6.73,6.36,0,15.06,2.62,15.06,13.93v25.84h-5.99v-24.91c0-6.62-3.35-10.36-10.76-10.36-8.31,0-12.96,4.49-12.96,12.82v22.45h-6.02v-56.46h6.02Z"/>
    <path class="st0" d="M828.33,331.84c0,2.71.35,6.32.75,8.1h-5.65c-.3-1.42-.67-3.45-.68-6.52-1.78,4.21-6.75,7.22-14.9,7.22-11.65,0-15.01-6.58-15.01-11.8s4.16-12.22,21.53-12.22h7.99v-4.14c0-3.89-1.32-8.22-10.4-8.22-7.51,0-10.33,2.71-11.27,7.56h-5.94c.8-6.67,5.46-11.64,17.49-11.64,9.52,0,16.1,3.32,16.1,11.91v19.75ZM822.51,320.51h-8.26c-12.75,0-15.16,4.21-15.16,8.12,0,4.24,3.17,7.71,9.68,7.71,10.13,0,13.74-5.58,13.74-15.04v-.79Z"/>
    <path class="st0" d="M839.63,314.2c0-6.14-.08-11.6-.19-13.25h5.96c.13,1.9.14,4.39.14,8.31,2.48-5.43,8.18-8.93,15.89-9.06v5.23c-11.12.48-15.77,6.57-15.77,14.77v19.73h-6.02v-25.74Z"/>
    <path class="st0" d="M902.77,283.48v46.57c0,3.45.01,7.44.19,9.89h-5.96c-.11-1.02-.24-3.54-.24-6.19-2.61,4.95-6.63,6.9-14.6,6.9-12.49,0-18.59-8.68-18.59-20.13s6.98-20.35,19.99-20.35c7.96,0,11.81,2.72,13.18,5.1v-21.8h6.02ZM869.89,320.27c0,10.3,5.79,15.98,13.61,15.98,11.12,0,13.45-7.06,13.45-16.79,0-11.77-4.51-14.86-12.9-14.86s-14.15,5.79-14.15,15.67Z"/>
  </g>
  <g>
    <path class="st0" d="M641.93,440.46c1.42,7.72,7.89,11.15,16.01,11.15s14.21-3.52,14.21-10.29c0-6.33-3.38-9.03-15.69-12.22-13.27-3.41-18.58-6.88-18.58-14.55s7.22-13.54,19.38-13.54c13.6,0,19.41,6.85,20.09,14.04h-6.27c-1.08-6.04-5.48-9.68-14.07-9.68s-12.58,3.38-12.58,8.74,3.48,7.71,14.51,10.45c16.05,4.02,19.8,8.93,19.8,16.21,0,8.99-7.75,15.15-21.07,15.15s-21.03-6.01-22.03-15.46h6.29Z"/>
    <path class="st0" d="M682.32,416.36h8.04v-11.62h6v11.62h10.09v4.21h-10.09v26.06c0,3.48,1.08,4.96,5.24,4.96,1.38,0,3.09-.13,4.04-.28v3.92c-1.63.5-4.08.64-5.73.64-6.1,0-9.56-1.84-9.56-8.01v-27.28h-8.04v-4.21Z"/>
    <path class="st0" d="M712.92,429.61c0-6.14-.08-11.6-.19-13.25h5.96c.13,1.9.14,4.39.14,8.31,2.48-5.43,8.18-8.93,15.89-9.06v5.23c-11.12.48-15.77,6.57-15.77,14.77v19.73h-6.02v-25.74Z"/>
    <path class="st0" d="M743.19,436.67c-.08,8.95,4.71,15.15,13.67,15.15,8.47,0,11.06-4.98,12.05-7.14h5.97c-1.29,4.25-5.61,11.43-18.41,11.43-14.87,0-19.49-10.02-19.49-20.44,0-9.54,5.71-20.09,19.9-20.09s18.81,9.61,18.81,18.21c0,.1-.02,2.76-.03,2.88h-32.48ZM769.66,432.76c-.27-7.48-3.95-12.94-12.96-12.94-10.38,0-12.81,7.85-13.32,12.94h26.28Z"/>
    <path class="st0" d="M819.12,444.51c0,4.6.1,9.01.19,10.84h-5.8c-.29-1.04-.38-3.7-.4-6.77-1.88,4.25-6.97,7.47-14.39,7.47-6.7,0-14.62-2.18-14.62-13.33v-26.35h6v25.28c0,5.4,2.05,9.98,10.11,9.98,7.45,0,12.72-4.17,12.72-13.44v-21.82h6.18v28.15Z"/>
  </g>
  <path class="st1" d="M576.26,431.49h41.86v26.09h-108.62v-59.15c0-25.05,12.36-39.38,31.03-39.38,14.02,0,22.28,8.15,25.69,18.9,1.75-4.45,6.02-16.11,25.53-16.11h5.42l305.83.16v27s-296.09.55-307.62.55h0c-3.2,0-6.36.82-9.1,2.46-4.47,2.69-10.03,7.94-10.03,17.4v22.07ZM556.49,431.49v-27.16c0-12.8-4.61-18.34-13.77-18.34-8.59,0-13.45,5.68-13.45,18.11v27.39h27.22Z"/>
  <path class="st1" d="M585,363s16.1-12.38,16.1-30.41c0-16.88-5.16-21.77-12.16-21.77-7.49,0-11.7,5-15.59,27.89-6.45,37.7-18.69,44.55-33.26,44.55-21.69,0-32.78-20.88-32.78-46.56,0-37.28,19.17-47.4,31.79-48.63v26.4c-5.38,1.54-12.58,5.15-12.58,23.07,0,12.56,4,18.92,11.01,18.92,6.28,0,9.44-4.47,13.09-24.86,7.41-41.27,19.86-47.73,35.62-47.73,18.83,0,34.04,14.77,34.04,51.2,0,33.98-15.16,49.29-34.73,52.58l-.57-24.65Z"/>
</svg>